
<svg width="41" height="40" viewBox="0 0 41 40" fill="none" xmlns="http://www.w3.org/2000/svg">
<path fill-rule="evenodd" clip-rule="evenodd" d="M9.51274 7.64706H6.03168V6H10.8935L11.9239 11.3399L33.9803 10.9253V20.2699C34.0807 20.6219 34.0597 21.0928 33.6809 21.4905C33.2741 21.9177 32.6266 22.0588 31.8946 22.0588H13.9923L14.3484 23.9042C14.4595 24.2048 14.7191 24.6731 15.1367 25.0645C15.5626 25.4636 16.1301 25.7647 16.8774 25.7647H33.146V27.4118H16.8774C15.6225 27.4118 14.6605 26.8893 13.9879 26.259C13.3294 25.642 12.9266 24.9045 12.7488 24.3781L12.7312 24.3258L9.51274 7.64706ZM13.6745 20.4118H31.8946C32.0782 20.4118 32.2141 20.3992 32.3117 20.383V12.6041L12.2406 12.9813L13.6745 20.4118Z" fill="#272727"/>
<path d="M18.546 31.5294C18.546 32.8939 17.4254 34 16.0431 34C14.6608 34 13.5403 32.8939 13.5403 31.5294C13.5403 30.1649 14.6608 29.0588 16.0431 29.0588C17.4254 29.0588 18.546 30.1649 18.546 31.5294Z" fill="#272727"/>
<path d="M30.226 34C31.6083 34 32.7289 32.8939 32.7289 31.5294C32.7289 30.1649 31.6083 29.0588 30.226 29.0588C28.8437 29.0588 27.7232 30.1649 27.7232 31.5294C27.7232 32.8939 28.8437 34 30.226 34Z" fill="#272727"/>
<circle cx="31.0317" cy="10" r="9" fill="#0074E9"/>
<path d="M33.8741 10.704C33.8741 11.4 33.8221 12.02 33.7181 12.564C33.6141 13.108 33.4461 13.572 33.2141 13.956C32.9901 14.332 32.6941 14.62 32.3261 14.82C31.9661 15.02 31.5301 15.12 31.0181 15.12C30.3781 15.12 29.8461 14.944 29.4221 14.592C29.0061 14.24 28.6941 13.736 28.4861 13.08C28.2861 12.416 28.1861 11.624 28.1861 10.704C28.1861 9.776 28.2781 8.984 28.4621 8.328C28.6541 7.672 28.9581 7.172 29.3741 6.828C29.7901 6.476 30.3381 6.3 31.0181 6.3C31.6581 6.3 32.1901 6.476 32.6141 6.828C33.0381 7.172 33.3541 7.672 33.5621 8.328C33.7701 8.984 33.8741 9.776 33.8741 10.704ZM29.2421 10.704C29.2421 11.488 29.2981 12.14 29.4101 12.66C29.5301 13.18 29.7181 13.572 29.9741 13.836C30.2381 14.092 30.5861 14.22 31.0181 14.22C31.4501 14.22 31.7941 14.092 32.0501 13.836C32.3141 13.58 32.5061 13.192 32.6261 12.672C32.7461 12.144 32.8061 11.488 32.8061 10.704C32.8061 9.92 32.7461 9.272 32.6261 8.76C32.5061 8.24 32.3141 7.852 32.0501 7.596C31.7941 7.332 31.4501 7.2 31.0181 7.2C30.5861 7.2 30.2381 7.332 29.9741 7.596C29.7181 7.852 29.5301 8.24 29.4101 8.76C29.2981 9.272 29.2421 9.92 29.2421 10.704Z" fill="white"/>
</svg>
